<?xml version="1.0" encoding="utf-8"?>
<!-- Generator: Adobe Illustrator 21.1.0, SVG Export Plug-In . SVG Version: 6.00 Build 0)  -->
<svg version="1.1" baseProfile="basic" id="Layer_1"
	 xmlns="http://www.w3.org/2000/svg" xmlns:xlink="http://www.w3.org/1999/xlink" x="0px" y="0px" viewBox="0 0 160 160"
	 xml:space="preserve">
<style type="text/css">
	.st0{fill:#008DBD;}
	.st1{fill:#F1F1F1;}
	.st2{fill:#E81C39;}
</style>
<g>
	<g>
		<polygon class="st0" points="13.1,48.4 13.1,7.7 60.6,7.7 68,18 120.8,18 120.8,59.3 		"/>
		<rect x="21.8" y="20.3" class="st1" width="91" height="36.2"/>
		<polygon class="st0" points="17,103.9 8,46.9 48.1,46.9 55.8,28.9 129.5,28.9 120.8,103.9 		"/>
		<g>
			<rect x="67.8" y="20.3" class="st1" width="45" height="8.7"/>
			<polygon class="st0" points="120.8,28.9 120.8,18 68,18 67.8,17.8 67.8,20.3 112.8,20.3 112.8,28.9 67.8,28.9 67.8,54 67.8,56.5 
				67.8,103.9 120.8,103.9 129.5,28.9 			"/>
		</g>
	</g>
	<rect x="89.7" y="61.3" class="st1" width="62.3" height="91"/>
	<rect x="98.3" y="73.6" class="st2" width="24" height="1.3"/>
	<rect x="119.2" y="135.4" class="st2" width="24" height="1.3"/>
	<rect x="98.3" y="79.3" class="st2" width="46.6" height="1.3"/>
	<rect x="98.3" y="85.1" class="st2" width="46.6" height="1.3"/>
	<rect x="98.3" y="90.8" class="st2" width="46.6" height="1.3"/>
	<rect x="98.3" y="96.6" class="st2" width="46.6" height="1.3"/>
	<rect x="98.3" y="102.3" class="st2" width="46.6" height="1.3"/>
	<rect x="98.3" y="108" class="st2" width="46.6" height="1.3"/>
	<rect x="98.3" y="113.8" class="st2" width="46.6" height="1.3"/>
	<rect x="98.3" y="119.5" class="st2" width="46.6" height="1.3"/>
	<rect x="98.3" y="125.2" class="st2" width="46.6" height="1.3"/>
	<g>
		<rect x="121.5" y="61.3" class="st1" width="30.5" height="91"/>
		<rect x="121.5" y="135.4" class="st0" width="21.8" height="1.3"/>
		<rect x="121.5" y="79.3" class="st0" width="23.4" height="1.3"/>
		<rect x="121.5" y="85.1" class="st0" width="23.4" height="1.3"/>
		<rect x="121.5" y="90.8" class="st0" width="23.4" height="1.3"/>
		<rect x="121.5" y="96.6" class="st0" width="23.4" height="1.3"/>
		<rect x="121.5" y="102.3" class="st0" width="23.4" height="1.3"/>
		<rect x="121.5" y="108" class="st0" width="23.4" height="1.3"/>
		<rect x="121.5" y="113.8" class="st0" width="23.4" height="1.3"/>
		<rect x="121.5" y="119.5" class="st0" width="23.4" height="1.3"/>
		<rect x="121.5" y="125.2" class="st0" width="23.4" height="1.3"/>
	</g>
</g>
</svg>
