<?xml version="1.0" encoding="utf-8"?>
<!-- Generator: Adobe Illustrator 21.1.0, SVG Export Plug-In . SVG Version: 6.00 Build 0)  -->
<svg version="1.1" baseProfile="basic" id="Layer_1"
	 xmlns="http://www.w3.org/2000/svg" xmlns:xlink="http://www.w3.org/1999/xlink" x="0px" y="0px" viewBox="0 0 160 160"
	 xml:space="preserve">
<style type="text/css">
	.st0{fill:#E20328;}
	.st1{fill:#FFFFFF;}
	.st2{fill:#004E8B;}
</style>
<g>
	<path class="st0" d="M130.7,124.4c-0.7,0.9-1.4,1.8-2.2,2.7c-10.4,12.6-24.4,24.3-31.1,28.5c-8.3-5.1-27.5-21.7-37.6-37.2
		c-0.6-0.9-1.1-1.7-1.6-2.6c-3.2-5.4-5.1-10.6-4.8-15C54.5,84.8,68,81.2,68,81.2c17.4-4.5,29.4,8.7,29.4,8.7s12-13.2,29.3-8.7
		c0,0,13.5,3.6,14.6,19.6C141.8,107.5,137.2,116,130.7,124.4z"/>
	<path class="st1" d="M130.7,124.4c-0.7,0.9-1.4,1.8-2.2,2.7l-23.7-0.7c-0.5,0-0.6,0-0.8-0.1c-0.5-0.1-2.1-0.1-3.1-2.7l-0.9-2.6
		c0,0-0.3-0.7-0.5,0.3c-0.3,1-2.9,6.7-2.9,6.7s-1,2.4-2.1,0.4l-2.7-17.2c0,0-0.2-0.4-0.2,0.3c0,0.7-2.6,30.1-2.6,30.1
		s-0.9,4.1-2.2,0.4l-2.9-19.5c0,0-0.1-1.7-0.6,0.1c0,0-1.7,5.7-3.3,3.1c0,0-1.6-3.2-2.5-5.7l-17.7-1.6c-0.6-0.9-1.1-1.7-1.6-2.6
		l21.1,2l1.8,4.3l2.7-7.3c0.1-0.2,0.3-0.5,0.5-0.5c0.2,0,0.6,0.1,0.9,0.6c0,0,0.6,1,0.9,3.5c0.3,2.5,1.7,14.7,1.7,14.7l1.1-18.8
		L90,102c0-0.4,0.1-0.8,0.2-1.1c0.5-1.4,1.7-4.6,2.9-1c0.2,0.7,0.4,1.5,0.5,2.2c0.2,2.4,1,9.4,1.3,12.8l0.9,7.4c0,0,1.8-4.2,2.4-4.8
		c0.6-0.7,1.7-2.9,3.8,0.3c0,0,1.5,2.7,2.5,5.7L130.7,124.4z"/>
	<path class="st1" d="M74,84.7c-1.6-0.1-3.1,0-4.6,0.4c-1.8,0.4-3.6,1.2-5.1,2.3c-0.2,0.1-0.8,0.6-0.9,0.7c-1.5,1.2-2.7,2.7-3.6,4.3
		c-0.7,1.3-1.3,2.8-1.6,4.3c-0.1,0.6,0.3,1.2,1,1.3c0.5,0,0.9-0.3,1-0.8c0-0.1,0-0.2,0.1-0.3c0,0,0-0.1,0-0.1c0-0.1,0.1-0.2,0.1-0.4
		c0,0,0-0.1,0-0.1c0-0.1,0.1-0.2,0.1-0.3c0,0,0-0.1,0-0.1c0-0.1,0-0.1,0.1-0.2c0,0,0-0.1,0-0.1c0-0.1,0-0.1,0.1-0.2
		c0,0,0-0.1,0.1-0.1c0-0.1,0-0.1,0.1-0.2c0,0,0-0.1,0.1-0.1c0-0.1,0-0.1,0.1-0.2c0,0,0-0.1,0.1-0.1c0-0.1,0-0.1,0.1-0.2
		c0,0,0-0.1,0.1-0.1c0-0.1,0.1-0.1,0.1-0.2c0,0,0-0.1,0.1-0.1c0-0.1,0.1-0.1,0.1-0.2c0,0,0-0.1,0.1-0.1c0-0.1,0.1-0.1,0.1-0.2
		c0,0,0-0.1,0.1-0.1c0-0.1,0.1-0.1,0.1-0.2c0,0,0-0.1,0.1-0.1c0-0.1,0.1-0.1,0.1-0.2c0,0,0-0.1,0.1-0.1c0-0.1,0.1-0.1,0.1-0.2
		c0,0,0-0.1,0.1-0.1c0-0.1,0.1-0.1,0.1-0.2c0,0,0-0.1,0.1-0.1c0.1-0.1,0.1-0.2,0.2-0.2c0,0,0,0,0,0c0-0.1,0.1-0.1,0.2-0.2
		c0,0,0-0.1,0.1-0.1c0,0,0.1-0.1,0.1-0.1c0,0,0-0.1,0.1-0.1c0,0,0.1-0.1,0.1-0.1c0,0,0.1-0.1,0.1-0.1c0,0,0.1-0.1,0.1-0.1
		c0,0,0.1-0.1,0.1-0.1c0,0,0.1-0.1,0.1-0.1c0,0,0.1-0.1,0.1-0.1c0,0,0.1-0.1,0.1-0.1c0,0,0.1-0.1,0.1-0.1c0,0,0.1-0.1,0.1-0.1
		c0,0,0.1-0.1,0.1-0.1c0,0,0.1-0.1,0.1-0.1c0,0,0.1-0.1,0.1-0.1c0,0,0.1-0.1,0.1-0.1c0,0,0.1-0.1,0.1-0.1c0,0,0.1-0.1,0.1-0.1
		c0,0,0.1,0,0.1-0.1c0,0,0.1-0.1,0.1-0.1c0,0,0.1,0,0.1-0.1c0,0,0.1-0.1,0.1-0.1c0,0,0.1,0,0.1-0.1c0,0,0.1-0.1,0.1-0.1
		c0,0,0,0,0.1,0c0,0,0.1-0.1,0.1-0.1c0,0,0.4-0.3,0.4-0.3c0,0,0.1-0.1,0.1-0.1c0,0,0.1,0,0.1-0.1c0,0,0.1-0.1,0.1-0.1
		c0,0,0.1,0,0.1-0.1c0,0,0.1-0.1,0.1-0.1c0,0,0.1,0,0.1-0.1c0,0,0.1-0.1,0.1-0.1c0,0,0.1,0,0.1-0.1c0,0,0.1,0,0.1-0.1
		c0,0,0.1,0,0.1-0.1c0,0,0.1,0,0.1-0.1c0,0,0.1,0,0.1-0.1c0,0,0.1,0,0.1-0.1c0,0,0.1,0,0.1-0.1c0,0,0.1,0,0.1-0.1c0,0,0.1,0,0.1-0.1
		c0,0,0.1,0,0.1-0.1c0,0,0.1,0,0.1-0.1c0.1,0,0.1,0,0.2-0.1c0,0,0.1,0,0.1,0c0.1,0,0.1,0,0.2-0.1c0,0,0.1,0,0.1,0
		c0.1,0,0.2-0.1,0.2-0.1c0,0,0,0,0,0c0.1,0,0.2-0.1,0.3-0.1c0,0,0.1,0,0.1,0c0.1,0,0.1,0,0.2-0.1c0,0,0.1,0,0.1,0
		c0.1,0,0.1,0,0.2-0.1c0,0,0.1,0,0.1,0c0.1,0,0.1,0,0.2,0c0,0,0.1,0,0.1,0c0.1,0,0.1,0,0.2,0c0,0,0.1,0,0.1,0c0.1,0,0.1,0,0.2,0
		c0,0,0.1,0,0.1,0c0.1,0,0.1,0,0.2,0c0,0,0.1,0,0.1,0c0.1,0,0.1,0,0.2,0c0,0,0.1,0,0.2,0c0.1,0,0.1,0,0.2,0c0.1,0,0.1,0,0.2,0
		c0.1,0,0.1,0,0.2,0c0.1,0,0.1,0,0.2,0c0.1,0,0.1,0,0.2,0c0.1,0,0.1,0,0.2,0c0.1,0,0.1,0,0.2,0c0,0,0.1,0,0.1,0c0.1,0,0.2,0,0.2,0
		c0,0,0.1,0,0.1,0c0.1,0,0.2,0,0.3,0c0,0,0.1,0,0.1,0c0.1,0,0.3,0,0.4,0c0,0,0.1,0,0.1,0c0.1,0,0.2,0,0.3,0c0.5,0,1-0.3,1.1-0.8
		C75.1,85.4,74.7,84.7,74,84.7z"/>
	<path class="st2" d="M55,17.9c0.1,0,1.2,0,1.3,0c1.1,0.1,3.6,0.4,6.4,1.3c3.8,1.3,6.9,3.3,9.4,5.9l9.1-10
		c-28.8-24.6-50.7,0.5-50.7,0.5l9.3,9.2C45.2,19.1,52.5,18.1,55,17.9z"/>
	<path class="st2" d="M76.3,45.2c0-0.7,0.1-1.4,0.1-2.1c0-0.7,0-1.3,0-2c0-0.6-0.1-1.3-0.1-1.8c-0.1-0.6-0.1-1.2-0.2-1.7
		c0-0.3-0.1-0.6-0.2-0.8c-0.1-0.3-0.1-0.5-0.2-0.8c-0.2-0.8-0.4-1.5-0.7-2.2c-0.1-0.2-0.1-0.4-0.2-0.5c0-0.1-0.1-0.2-0.1-0.3
		c-0.1-0.2-0.2-0.4-0.2-0.6c0,0,0-0.1-0.1-0.1c-0.1-0.2-0.2-0.4-0.2-0.5c0,0,0,0,0,0c0-0.1-0.1-0.1-0.1-0.2c0-0.1-0.1-0.1-0.1-0.2
		c-0.1-0.2-0.2-0.3-0.3-0.5c0,0,0-0.1-0.1-0.1c-0.1-0.2-0.2-0.3-0.3-0.5c-0.1-0.2-0.3-0.5-0.4-0.7c-0.3-0.5-0.6-0.9-0.9-1.3
		c-0.1-0.1-0.2-0.2-0.2-0.3c-0.2-0.2-0.3-0.4-0.5-0.6c0,0,0,0-0.1-0.1c-0.1-0.1-0.1-0.2-0.2-0.2c-0.2-0.2-0.3-0.4-0.5-0.5
		c-0.1-0.1-0.2-0.2-0.3-0.3c0,0-0.1-0.1-0.1-0.1c-0.1-0.1-0.2-0.2-0.3-0.2c0,0-0.1-0.1-0.1-0.1c-0.1-0.1-0.2-0.2-0.3-0.3
		c0,0,0,0-0.1-0.1c-0.1-0.1-0.2-0.2-0.3-0.2c0,0-0.1-0.1-0.1-0.1c-0.1-0.1-0.2-0.2-0.3-0.2c0,0,0,0-0.1,0c-0.1-0.1-0.2-0.2-0.3-0.3
		c0,0-0.1,0-0.1-0.1c-0.1-0.1-0.2-0.1-0.3-0.2c0,0-0.1,0-0.1-0.1c-0.1-0.1-0.2-0.2-0.4-0.2c-0.4-0.3-0.8-0.5-1.2-0.7
		C66,23,65.9,23,65.7,22.9c-0.2-0.1-0.3-0.2-0.5-0.2c-0.2-0.1-0.3-0.2-0.5-0.2c-0.4-0.2-0.8-0.4-1.3-0.5c-0.2-0.1-0.4-0.2-0.7-0.2
		c-0.1,0-0.2-0.1-0.3-0.1c-0.4-0.1-0.8-0.3-1.2-0.4c-0.3-0.1-0.6-0.2-0.8-0.2c-0.1,0-0.3-0.1-0.4-0.1c-0.2-0.1-0.5-0.1-0.7-0.2
		c0,0-0.1,0-0.1,0c-0.1,0-0.3-0.1-0.4-0.1c0,0-1.1-0.3-1.1-0.3c0,0-0.6-0.1-1.1-0.1c-0.6-0.1-1.2-0.1-1.3-0.1h-0.2
		c-1.9,0-9.2,0.9-14.3,6.6c-2.9,3.3-5.1,8.1-5.2,15.4c0,1,0,2,0.1,3.1c0,0,0,0,0,0c0,0.5,0.5,5.8,1.4,11.1c0,0,1.5,4.9-0.4,7.7
		c0,0,0,0,0.1,0.1l0,0c0,0,0,0,0,0c0.8,0.4,4.7,2.1,9.9-3.6l1.8,1.7l0.3,0.3l0,3.4l0,0.1h7.5h0.4h0h7.5L64,62.5l2-1.8
		c3,3.3,5.6,4.1,7.4,4.1c1.6,0,2.6-0.7,2.6-0.7c-1.9-2.8-0.7-7.8-0.7-7.8C76.2,50.8,76.3,45.2,76.3,45.2z"/>
	<g>
		<rect x="53.8" y="6.1" class="st1" width="3.6" height="10.1"/>
		
			<rect x="53.8" y="6.1" transform="matrix(-1.836970e-16 1 -1 -1.836970e-16 66.7968 -44.4041)" class="st1" width="3.6" height="10.1"/>
	</g>
	<g>
		<path class="st2" d="M55.4,117c-3.5-6-5.7-11.8-5.3-16.7c1.2-17.8,16.2-21.8,16.2-21.8c11.3-2.9,20.6,0.9,26.4,4.6
			c-4.2-10.2-13.3-13.8-18.5-15.4c-0.8-0.3-1.6-0.5-2.5-0.7c-0.9-0.3-1.5-0.4-2.6-0.7l-0.2,0c-2.9-0.7-5.7-1.1-6.3-1.1h-6.1h-6.1
			c-0.6,0-3.4,0.4-6.3,1.1l-0.2,0c-1.1,0.3-1.6,0.4-2.6,0.7c-0.9,0.2-1.7,0.5-2.5,0.7c-6.1,1.9-17.8,6.6-20.3,21.7v1.9
			c0,0,0,0.1,0,0.1v31.9h14.7V96.3h2.5v27.1h20.7h3c-0.9-1.2-1.7-2.4-2.5-3.6C56.5,118.9,55.9,118,55.4,117z"/>
	</g>
</g>
</svg>
