<?xml version="1.0" encoding="utf-8"?>
<!-- Generator: Adobe Illustrator 21.1.0, SVG Export Plug-In . SVG Version: 6.00 Build 0)  -->
<svg version="1.1" baseProfile="basic" id="Layer_1"
	 xmlns="http://www.w3.org/2000/svg" xmlns:xlink="http://www.w3.org/1999/xlink" x="0px" y="0px" viewBox="0 0 160 160"
	 xml:space="preserve">
<style type="text/css">
	.st0{fill:#023247;}
	.st1{fill:#073C5B;}
	.st2{fill:#074F8A;}
	.st3{fill:#008CBB;}
	.st4{fill:#D9DADA;}
	.st5{fill:#FFFFFF;}
	.st6{fill:#D5CFBD;}
	.st7{fill:#DFD8C5;}
	.st8{fill:#F3F2F2;}
	.st9{fill:#E59924;}
	.st10{fill:#F7A91F;}
	.st11{fill:none;stroke:#FFFFFF;stroke-width:1.6674;stroke-linecap:round;stroke-linejoin:round;stroke-miterlimit:10;}
	.st12{fill:#EC193E;}
	.st13{fill:#E81D2A;}
	.st14{opacity:0.6;}
	.st15{fill:#369A84;}
</style>
<g>
	<path class="st0" d="M81.5,11h-9c6.6,0,11.9,5.3,11.9,11.9v97c0,6.6-5.3,11.9-11.9,11.9h9c6.6,0,11.9-5.3,11.9-11.9v-97
		C93.3,16.3,88,11,81.5,11z"/>
	<path class="st1" d="M84.4,119.9v-97C84.4,16.3,79,11,72.5,11H15.4C8.8,11,3.5,16.3,3.5,22.9v97c0,6.6,5.3,11.9,11.9,11.9h57.1
		C79,131.7,84.4,126.4,84.4,119.9z"/>
	<rect x="3.5" y="22.9" class="st2" width="89.8" height="97"/>
	<polygon class="st3" points="3.5,22.9 3.5,119.9 93.3,22.9 	"/>
	<path class="st4" d="M49,121.7c-0.3,0-0.6,0-0.8,0.1c1.8,0.4,3.2,2,3.2,4c0,2-1.4,3.6-3.2,4c0.3,0.1,0.6,0.1,0.8,0.1
		c2.3,0,4.1-1.8,4.1-4.1C53,123.6,51.2,121.7,49,121.7z"/>
	<path class="st5" d="M51.4,125.8c0-2-1.4-3.6-3.2-4c-1.8,0.4-3.2,2-3.2,4c0,2,1.4,3.6,3.2,4C50,129.4,51.4,127.8,51.4,125.8z"/>
	<g>
		<path class="st6" d="M87.4,83.5c-1.5,0.8-2.9,1.6-4.4,2.4v17.8c0,1.9-1.6,3.5-3.5,3.5h4.5c1.9,0,3.5-1.6,3.5-3.5V84.2
			C87.5,84,87.4,83.7,87.4,83.5z"/>
		<path class="st7" d="M83,85.9v-1.7c0-0.3,0-0.5-0.1-0.7c-8.3,4.7-16.5,8.9-21.1,10c0.9,0.2,1.7,0.3,2.3,0.3
			C67.3,93.9,74.8,90.4,83,85.9z"/>
		<path class="st7" d="M64.2,93.9c-0.7,0-1.5-0.1-2.3-0.3c-5-1.2-13.1-5.8-20.9-10.8c-0.2,0.4-0.3,0.9-0.3,1.5v1.1v18.4
			c0,1.9,1.6,3.5,3.5,3.5h35.4c1.9,0,3.5-1.6,3.5-3.5V85.9C74.8,90.4,67.3,93.9,64.2,93.9z"/>
		<path class="st5" d="M83,80.7H44.1c-1.4,0-2.6,0.8-3.2,2c9.2,5.8,18.7,11.1,23.3,11.1c3.1,0,10.6-3.5,18.8-7.9L83,80.7z"/>
		<path class="st8" d="M83.9,80.7H83l0,5.2c1.5-0.8,2.9-1.6,4.4-2.4C87,81.9,85.6,80.7,83.9,80.7z"/>
	</g>
	<g>
		<path class="st9" d="M30.1,31.6c-1.3,0-3.4,0.6-5.8,1.5c0.7-0.2,1.4-0.3,1.9-0.3c3.7,0,14.5,5.6,22,11.9h1.7
			c1.7,0,2.1,0.5,2.4-1.1C44.8,37.2,33.8,31.6,30.1,31.6z"/>
		<path class="st10" d="M24.4,33.1c-5.8,2.3-13.4,6.8-17,10.8c-0.9,1,1.3,0.8,2.7,0.8h38.2c-7.5-6.3-18.3-11.9-22-11.9
			C25.7,32.8,25.1,32.9,24.4,33.1z"/>
		<path class="st9" d="M53.3,45.4c-0.3-1.6-1.7-2.8-3.4-2.8H10.1c-1.4,0-2.6,0.8-3.2,2c9.2,5.8,18.7,11.1,23.3,11.1
			C33.8,55.8,43.5,51,53.3,45.4z"/>
		<rect x="9.2" y="44.4" class="st5" width="41.5" height="23"/>
		<rect x="12.1" y="46" class="st9" width="20.3" height="0.9"/>
		<rect x="12.1" y="49" class="st9" width="20.3" height="0.9"/>
		<rect x="12.1" y="52" class="st9" width="20.3" height="0.9"/>
		<rect x="12.1" y="55" class="st9" width="20.3" height="0.9"/>
		<rect x="35.1" y="46" class="st9" width="12.4" height="11.1"/>
		<path class="st9" d="M53.3,45.4c-1.3,0.7-2.5,1.4-3.8,2.1v18.1c0,1.9-1.6,3.5-3.5,3.5h3.9c1.9,0,3.5-1.6,3.5-3.5V46.2
			C53.4,45.9,53.4,45.7,53.3,45.4z"/>
		<path class="st10" d="M28.1,55.5c-5-1.1-13.3-5.8-21.2-10.8c-0.2,0.4-0.3,0.9-0.3,1.5v0.7c8,4.9,15.8,8.9,19.7,8.9
			C26.8,55.8,27.4,55.7,28.1,55.5z"/>
		<path class="st10" d="M49.6,65.6V47.5c-8.5,4.6-16.2,8.3-19.4,8.3c-0.6,0-1.3-0.1-2-0.3c-0.7,0.2-1.3,0.3-1.8,0.3
			c-3.9,0-11.7-4-19.7-8.9v18.7c0,1.9,1.6,3.5,3.5,3.5h36C48,69.1,49.6,67.6,49.6,65.6z"/>
	</g>
	<path class="st11" d="M59.6,53.7h20.9c0.7,0,1.3,0.6,1.3,1.3v21"/>
	<path class="st11" d="M33.3,96.2H12.5c-0.7,0-1.3-0.6-1.3-1.3v-21"/>
	<g>
		<path class="st12" d="M71.6,141.3c-0.8,0.8,0.3,3.1,2.5,5.2c2.1,2,4.5,3.1,5.2,2.3l23.1-24l-7.7-7.4L71.6,141.3z"/>
		<g>
			<path class="st1" d="M94.6,117.3l15.7-16.3c0.8-0.8,3.1,0.2,5.2,2.3l0,0c2.1,2,3.2,4.4,2.5,5.2l-15.7,16.3"/>
			<path class="st0" d="M116.3,106.8l-15.7,16.3l1.8,1.7l15.7-16.3c0.8-0.8-0.3-3.1-2.5-5.2c-0.3-0.3-0.6-0.6-0.9-0.8
				C116.2,104.3,116.9,106.1,116.3,106.8z"/>
			
				<ellipse transform="matrix(0.6934 -0.7205 0.7205 0.6934 -27.8632 119.197)" class="st13" cx="126.1" cy="92.3" rx="30.4" ry="30.4"/>
			<path class="st5" d="M140.5,106.2c6.7-7,9.4-16.4,8.2-25.3c-1.3-2.5-2.9-4.8-5-6.8c-10.1-9.7-26.1-9.4-35.8,0.7
				c-9.7,10.1-9.4,26.1,0.7,35.8c2.1,2,4.5,3.6,7,4.8C124.6,116.2,133.8,113.2,140.5,106.2z"/>
			<g class="st14">
				<path class="st15" d="M146.9,70.2c-1.2-1.2-2.5-2.2-3.9-3.2c3.1,4.2,5,9,5.7,13.9c4.7,9.3,3.3,21-4.3,28.9
					c-7.7,8-19.2,9.8-28.7,5.5c-5-0.5-9.8-2.2-14.1-5.1c1,1.3,2.1,2.6,3.3,3.8c12.1,11.6,31.3,11.3,42.9-0.8
					C159.4,101.1,159,81.9,146.9,70.2z"/>
			</g>
			<path class="st7" d="M144.4,109.9c7.7-8,9-19.6,4.3-28.9c1.2,8.9-1.4,18.3-8.2,25.3c-6.7,7-16,10-24.9,9.1
				C125.1,119.7,136.7,117.8,144.4,109.9z"/>
		</g>
	</g>
</g>
</svg>
