<?xml version="1.0" encoding="utf-8"?>
<!-- Generator: Adobe Illustrator 21.1.0, SVG Export Plug-In . SVG Version: 6.00 Build 0)  -->
<svg version="1.1" baseProfile="basic" id="Layer_1"
	 xmlns="http://www.w3.org/2000/svg" xmlns:xlink="http://www.w3.org/1999/xlink" x="0px" y="0px" viewBox="0 0 160 160"
	 xml:space="preserve">
<style type="text/css">
	.st0{fill:#DDDDDC;}
	.st1{fill:#E74D3C;}
	.st2{fill:#F06252;}
	.st3{fill:#1778BD;}
	.st4{fill:#EFC319;}
	.st5{fill:#E1E0DF;}
	.st6{fill:#ECECEC;}
	.st7{opacity:0.7;fill:#EFC319;}
	.st8{opacity:6.000000e-02;}
	.st9{fill:#008CBB;}
	.st10{opacity:0.1;}
	.st11{fill:#F3F2F2;}
	.st12{fill:#163F6D;}
	.st13{fill:#FFFFFF;}
	.st14{fill-rule:evenodd;clip-rule:evenodd;fill:#DDDDDC;}
	.st15{opacity:0.3;}
	.st16{fill-rule:evenodd;clip-rule:evenodd;fill:#343433;}
	.st17{fill-rule:evenodd;clip-rule:evenodd;fill:#FDDB4C;}
	.st18{fill:#EF64A0;}
	.st19{fill:#0AADC9;}
	.st20{fill:#66BB46;}
	.st21{fill:#FAAB1B;}
	.st22{fill-rule:evenodd;clip-rule:evenodd;fill:#F7B617;}
	.st23{opacity:0.2;fill-rule:evenodd;clip-rule:evenodd;}
	.st24{fill-rule:evenodd;clip-rule:evenodd;fill:#EC7123;}
	.st25{opacity:0.5;fill:#231F20;}
	.st26{fill:#F5871F;}
	.st27{fill:#F79742;}
	.st28{opacity:0.1;fill:#231F20;}
	.st29{opacity:0.5;fill:#FFFFFF;}
</style>
<g>
	<g id="Web">
		<path class="st0" d="M157.5,109.4c0,1.7-1.4,3-3,3H81.2c-1.7,0-3-1.4-3-3v-54c0-1.7,1.4-3,3-3h73.3c1.7,0,3,1.4,3,3V109.4z"/>
		<path class="st1" d="M154.5,52.3H81.2c-1.7,0-3,1.4-3,3v11.8h79.4V55.3C157.5,53.6,156.2,52.3,154.5,52.3z"/>
		<circle class="st2" cx="143.4" cy="55" r="1.5"/>
		<circle class="st3" cx="148.4" cy="55" r="1.5"/>
		<circle class="st4" cx="153.7" cy="55" r="1.5"/>
		<path class="st5" d="M137.7,57.3c0,1.3-1.1,2.4-2.4,2.4H89c-1.3,0-2.4-1.1-2.4-2.4l0,0c0-1.3,1.1-2.4,2.4-2.4h46.4
			C136.7,55,137.7,56,137.7,57.3L137.7,57.3z"/>
		<rect x="82" y="69.9" class="st6" width="47.4" height="24"/>
		<rect x="82" y="98.3" class="st7" width="71.6" height="4.4"/>
		<rect x="82" y="104.8" class="st7" width="71.6" height="4.4"/>
		<path class="st8" d="M154.5,52.3h-36.6v60.1h36.6c1.7,0,3-1.4,3-3v-54C157.5,53.6,156.2,52.3,154.5,52.3z"/>
	</g>
	<polygon class="st9" points="13.4,49.2 13.4,135.9 76.2,135.9 76.2,63.8 62.2,49.2 	"/>
	<polygon class="st10" points="62.5,63.3 76.6,77.5 76.6,63.3 66.4,57.6 	"/>
	<polygon class="st11" points="76.2,63.8 62.2,64 62.2,49.2 	"/>
	<path class="st12" d="M30.1,79.5l3.8,2.8l2.8-3.8l-3.8-2.8L30.1,79.5z M35.7,78.7l-1.9,2.6l-2.6-1.9l1.9-2.6L35.7,78.7z"/>
	<path class="st12" d="M50.9,94.9l3.8,2.8l2.8-3.8l-3.8-2.8L50.9,94.9z M56.5,94.1l-1.9,2.6L52,94.7l1.9-2.6L56.5,94.1z"/>
	<g>
		<path class="st13" d="M52.2,95.9c-4.3,3.9-10.8,4.4-15.6,0.8c-4.8-3.6-6.3-10-3.8-15.2l-1.1-0.8c-2.9,5.8-1.3,13,4.1,17
			c5.4,4,12.8,3.4,17.5-1.1L52.2,95.9z"/>
		<path class="st13" d="M34.6,76.9l1.1,0.8c4.3-3.9,10.8-4.4,15.6-0.8c4.8,3.6,6.3,10,3.8,15.2l1.1,0.8c2.9-5.8,1.3-13-4.1-17
			C46.6,71.8,39.3,72.4,34.6,76.9z"/>
	</g>
	<g id="Keyboard_2_">
		<rect x="37.5" y="114.7" class="st14" width="104.3" height="39.3"/>
		<g id="Keyboard_3_" class="st15">
			<path class="st16" d="M43.2,119.6h4.6c0.3,0,0.5,0.3,0.5,0.6v5c0,0.4-0.2,0.6-0.5,0.6h-4.6c-0.3,0-0.5-0.3-0.5-0.6v-5
				C42.7,119.9,42.9,119.6,43.2,119.6L43.2,119.6z"/>
			<path class="st16" d="M50.7,119.6h4.6c0.3,0,0.5,0.3,0.5,0.6v5c0,0.4-0.2,0.6-0.5,0.6h-4.6c-0.3,0-0.5-0.3-0.5-0.6v-5
				C50.2,119.9,50.4,119.6,50.7,119.6L50.7,119.6z"/>
			<path class="st16" d="M58.2,119.6h4.6c0.3,0,0.5,0.3,0.5,0.6v5c0,0.4-0.2,0.6-0.5,0.6h-4.6c-0.3,0-0.5-0.3-0.5-0.6v-5
				C57.7,119.9,57.9,119.6,58.2,119.6L58.2,119.6z"/>
			<path class="st16" d="M65.7,119.6h4.6c0.3,0,0.5,0.3,0.5,0.6v5c0,0.4-0.2,0.6-0.5,0.6h-4.6c-0.3,0-0.5-0.3-0.5-0.6v-5
				C65.2,119.9,65.5,119.6,65.7,119.6L65.7,119.6z"/>
			<path class="st16" d="M73.2,119.6h4.6c0.3,0,0.5,0.3,0.5,0.6v5c0,0.4-0.2,0.6-0.5,0.6h-4.6c-0.3,0-0.5-0.3-0.5-0.6v-5
				C72.7,119.9,73,119.6,73.2,119.6L73.2,119.6z"/>
			<path class="st16" d="M80.8,119.6h4.6c0.3,0,0.5,0.3,0.5,0.6v5c0,0.4-0.2,0.6-0.5,0.6h-4.6c-0.3,0-0.5-0.3-0.5-0.6v-5
				C80.3,119.9,80.5,119.6,80.8,119.6L80.8,119.6z"/>
			<path class="st16" d="M88.3,119.6h4.6c0.3,0,0.5,0.3,0.5,0.6v5c0,0.4-0.2,0.6-0.5,0.6h-4.6c-0.3,0-0.5-0.3-0.5-0.6v-5
				C87.8,119.9,88,119.6,88.3,119.6L88.3,119.6z"/>
			<path class="st16" d="M95.8,119.6h4.6c0.3,0,0.5,0.3,0.5,0.6v5c0,0.4-0.2,0.6-0.5,0.6h-4.6c-0.3,0-0.5-0.3-0.5-0.6v-5
				C95.3,119.9,95.5,119.6,95.8,119.6L95.8,119.6z"/>
			<path class="st16" d="M103.3,119.6h4.6c0.3,0,0.5,0.3,0.5,0.6v5c0,0.4-0.2,0.6-0.5,0.6h-4.6c-0.3,0-0.5-0.3-0.5-0.6v-5
				C102.8,119.9,103,119.6,103.3,119.6L103.3,119.6z"/>
			<path class="st16" d="M110.8,119.6h4.6c0.3,0,0.5,0.3,0.5,0.6v5c0,0.4-0.2,0.6-0.5,0.6h-4.6c-0.3,0-0.5-0.3-0.5-0.6v-5
				C110.3,119.9,110.5,119.6,110.8,119.6L110.8,119.6z"/>
			<path class="st16" d="M118.3,119.6h4.6c0.3,0,0.5,0.3,0.5,0.6v5c0,0.4-0.2,0.6-0.5,0.6h-4.6c-0.3,0-0.5-0.3-0.5-0.6v-5
				C117.8,119.9,118,119.6,118.3,119.6L118.3,119.6z"/>
			<path class="st16" d="M54.5,128.3h4.6c0.3,0,0.5,0.3,0.5,0.6v5c0,0.4-0.2,0.6-0.5,0.6h-4.6c-0.3,0-0.5-0.3-0.5-0.6v-5
				C54,128.6,54.2,128.3,54.5,128.3L54.5,128.3z"/>
			<path class="st16" d="M62,128.3h4.6c0.3,0,0.5,0.3,0.5,0.6v5c0,0.4-0.2,0.6-0.5,0.6H62c-0.3,0-0.5-0.3-0.5-0.6v-5
				C61.5,128.6,61.7,128.3,62,128.3L62,128.3z"/>
			<path class="st16" d="M69.5,128.3h4.6c0.3,0,0.5,0.3,0.5,0.6v5c0,0.4-0.2,0.6-0.5,0.6h-4.6c-0.3,0-0.5-0.3-0.5-0.6v-5
				C69,128.6,69.2,128.3,69.5,128.3L69.5,128.3z"/>
			<path class="st16" d="M77,128.3h4.6c0.3,0,0.5,0.3,0.5,0.6v5c0,0.4-0.2,0.6-0.5,0.6H77c-0.3,0-0.5-0.3-0.5-0.6v-5
				C76.5,128.6,76.7,128.3,77,128.3L77,128.3z"/>
			<path class="st16" d="M84.5,128.3h4.6c0.3,0,0.5,0.3,0.5,0.6v5c0,0.4-0.2,0.6-0.5,0.6h-4.6c-0.3,0-0.5-0.3-0.5-0.6v-5
				C84,128.6,84.2,128.3,84.5,128.3L84.5,128.3z"/>
			<path class="st16" d="M92,128.3h4.6c0.3,0,0.5,0.3,0.5,0.6v5c0,0.4-0.2,0.6-0.5,0.6H92c-0.3,0-0.5-0.3-0.5-0.6v-5
				C91.5,128.6,91.8,128.3,92,128.3L92,128.3z"/>
			<path class="st16" d="M99.5,128.3h4.6c0.3,0,0.5,0.3,0.5,0.6v5c0,0.4-0.2,0.6-0.5,0.6h-4.6c-0.3,0-0.5-0.3-0.5-0.6v-5
				C99,128.6,99.3,128.3,99.5,128.3L99.5,128.3z"/>
			<path class="st16" d="M107.1,128.3h4.6c0.3,0,0.5,0.3,0.5,0.6v5c0,0.4-0.2,0.6-0.5,0.6h-4.6c-0.3,0-0.5-0.3-0.5-0.6v-5
				C106.6,128.6,106.8,128.3,107.1,128.3L107.1,128.3z"/>
			<path class="st16" d="M114.6,128.3h4.6c0.3,0,0.5,0.3,0.5,0.6v5c0,0.4-0.2,0.6-0.5,0.6h-4.6c-0.3,0-0.5-0.3-0.5-0.6v-5
				C114.1,128.6,114.3,128.3,114.6,128.3L114.6,128.3z"/>
			<path class="st16" d="M122.1,128.3h4.6c0.3,0,0.5,0.3,0.5,0.6v5c0,0.4-0.2,0.6-0.5,0.6h-4.6c-0.3,0-0.5-0.3-0.5-0.6v-5
				C121.6,128.6,121.8,128.3,122.1,128.3L122.1,128.3z"/>
			<path class="st16" d="M125.8,119.6h4.6c0.3,0,0.5,0.3,0.5,0.6v5c0,0.4-0.2,0.6-0.5,0.6h-4.6c-0.3,0-0.5-0.3-0.5-0.6v-5
				C125.3,119.9,125.6,119.6,125.8,119.6L125.8,119.6z"/>
			<path class="st16" d="M133.3,119.6h4.6c0.3,0,0.5,0.3,0.5,0.6v5c0,0.4-0.2,0.6-0.5,0.6h-4.6c-0.3,0-0.5-0.3-0.5-0.6v-5
				C132.8,119.9,133.1,119.6,133.3,119.6L133.3,119.6z"/>
			<path class="st16" d="M129.7,128.3h8.2c0.3,0,0.5,0.3,0.5,0.6v5c0,0.4-0.2,0.6-0.5,0.6h-8.2c-0.3,0-0.5-0.3-0.5-0.6v-5
				C129.2,128.6,129.4,128.3,129.7,128.3L129.7,128.3z"/>
			<path class="st16" d="M43.3,128.3h8.6c0.3,0,0.5,0.3,0.5,0.6v5c0,0.4-0.2,0.6-0.5,0.6h-8.6c-0.3,0-0.5-0.3-0.5-0.6v-5
				C42.8,128.6,43,128.3,43.3,128.3L43.3,128.3z"/>
			<path class="st16" d="M43.3,137h10.2c0.3,0,0.5,0.3,0.5,0.6v5c0,0.4-0.2,0.6-0.5,0.6H43.3c-0.3,0-0.5-0.3-0.5-0.6v-5
				C42.8,137.3,43,137,43.3,137L43.3,137z"/>
			<path class="st16" d="M43.3,145.7h4.6c0.3,0,0.5,0.3,0.5,0.6v5c0,0.4-0.2,0.6-0.5,0.6h-4.6c-0.3,0-0.5-0.3-0.5-0.6v-5
				C42.8,146,43,145.7,43.3,145.7L43.3,145.7z"/>
			<path class="st16" d="M50.8,145.7h4.6c0.3,0,0.5,0.3,0.5,0.6v5c0,0.4-0.2,0.6-0.5,0.6h-4.6c-0.3,0-0.5-0.3-0.5-0.6v-5
				C50.3,146,50.5,145.7,50.8,145.7L50.8,145.7z"/>
			<path class="st16" d="M58.3,145.7h4.6c0.3,0,0.5,0.3,0.5,0.6v5c0,0.4-0.2,0.6-0.5,0.6h-4.6c-0.3,0-0.5-0.3-0.5-0.6v-5
				C57.8,146,58,145.7,58.3,145.7L58.3,145.7z"/>
			<path class="st16" d="M65.8,145.7h48c0.3,0,0.5,0.3,0.5,0.6v5c0,0.4-0.2,0.6-0.5,0.6h-48c-0.3,0-0.5-0.3-0.5-0.6v-5
				C65.3,146,65.5,145.7,65.8,145.7L65.8,145.7z"/>
			<path class="st16" d="M56.3,137.1h4.6c0.3,0,0.5,0.3,0.5,0.6v5c0,0.4-0.2,0.6-0.5,0.6h-4.6c-0.3,0-0.5-0.3-0.5-0.6v-5
				C55.8,137.4,56,137.1,56.3,137.1L56.3,137.1z"/>
			<path class="st16" d="M63.8,137.1h4.6c0.3,0,0.5,0.3,0.5,0.6v5c0,0.4-0.2,0.6-0.5,0.6h-4.6c-0.3,0-0.5-0.3-0.5-0.6v-5
				C63.3,137.4,63.5,137.1,63.8,137.1L63.8,137.1z"/>
			<path class="st16" d="M71.3,137.1h4.6c0.3,0,0.5,0.3,0.5,0.6v5c0,0.4-0.2,0.6-0.5,0.6h-4.6c-0.3,0-0.5-0.3-0.5-0.6v-5
				C70.8,137.4,71,137.1,71.3,137.1L71.3,137.1z"/>
			<path class="st16" d="M78.8,137.1h4.6c0.3,0,0.5,0.3,0.5,0.6v5c0,0.4-0.2,0.6-0.5,0.6h-4.6c-0.3,0-0.5-0.3-0.5-0.6v-5
				C78.3,137.4,78.5,137.1,78.8,137.1L78.8,137.1z"/>
			<path class="st16" d="M86.3,137.1h4.6c0.3,0,0.5,0.3,0.5,0.6v5c0,0.4-0.2,0.6-0.5,0.6h-4.6c-0.3,0-0.5-0.3-0.5-0.6v-5
				C85.8,137.4,86,137.1,86.3,137.1L86.3,137.1z"/>
			<path class="st16" d="M93.8,137.1h4.6c0.3,0,0.5,0.3,0.5,0.6v5c0,0.4-0.2,0.6-0.5,0.6h-4.6c-0.3,0-0.5-0.3-0.5-0.6v-5
				C93.3,137.4,93.6,137.1,93.8,137.1L93.8,137.1z"/>
			<path class="st16" d="M101.3,137.1h4.6c0.3,0,0.5,0.3,0.5,0.6v5c0,0.4-0.2,0.6-0.5,0.6h-4.6c-0.3,0-0.5-0.3-0.5-0.6v-5
				C100.8,137.4,101.1,137.1,101.3,137.1L101.3,137.1z"/>
			<path class="st16" d="M108.9,137.1h4.6c0.3,0,0.5,0.3,0.5,0.6v5c0,0.4-0.2,0.6-0.5,0.6h-4.6c-0.3,0-0.5-0.3-0.5-0.6v-5
				C108.4,137.4,108.6,137.1,108.9,137.1L108.9,137.1z"/>
			<path class="st16" d="M116.4,137.1h8.6c0.3,0,0.5,0.3,0.5,0.6v5c0,0.4-0.2,0.6-0.5,0.6h-8.6c-0.3,0-0.5-0.3-0.5-0.6v-5
				C115.9,137.4,116.1,137.1,116.4,137.1L116.4,137.1z"/>
			<path class="st16" d="M127.7,137h10.2c0.3,0,0.5,0.3,0.5,0.6v5c0,0.4-0.2,0.6-0.5,0.6h-10.2c-0.3,0-0.5-0.3-0.5-0.6v-5
				C127.2,137.3,127.4,137,127.7,137L127.7,137z"/>
			<path class="st16" d="M128.6,145.7h3.9c0.1,0,0.2,0.1,0.2,0.2v1.7c0,0.1-0.1,0.2-0.2,0.2h-3.9c-0.1,0-0.2-0.1-0.2-0.2v-1.7
				C128.4,145.8,128.5,145.7,128.6,145.7L128.6,145.7z"/>
			<path class="st16" d="M128.6,149.5h3.9c0.1,0,0.2,0.1,0.2,0.2v1.7c0,0.1-0.1,0.2-0.2,0.2h-3.9c-0.1,0-0.2-0.1-0.2-0.2v-1.7
				C128.4,149.6,128.5,149.5,128.6,149.5L128.6,149.5z"/>
			<path class="st16" d="M122.9,149.5h3.9c0.1,0,0.2,0.1,0.2,0.2v1.7c0,0.1-0.1,0.2-0.2,0.2h-3.9c-0.1,0-0.2-0.1-0.2-0.2v-1.7
				C122.7,149.6,122.8,149.5,122.9,149.5L122.9,149.5z"/>
			<path class="st16" d="M134.3,149.5h3.9c0.1,0,0.2,0.1,0.2,0.2v1.7c0,0.1-0.1,0.2-0.2,0.2h-3.9c-0.1,0-0.2-0.1-0.2-0.2v-1.7
				C134.1,149.6,134.2,149.5,134.3,149.5L134.3,149.5z"/>
			<path class="st16" d="M116.2,145.7h4.6c0.3,0,0.5,0.3,0.5,0.6v5c0,0.4-0.2,0.6-0.5,0.6h-4.6c-0.3,0-0.5-0.3-0.5-0.6v-5
				C115.7,146,115.9,145.7,116.2,145.7L116.2,145.7z"/>
		</g>
		<g id="Keyboard_1_">
			<path class="st16" d="M42.7,118.9h4.6c0.3,0,0.5,0.3,0.5,0.6v5c0,0.4-0.2,0.6-0.5,0.6h-4.6c-0.3,0-0.5-0.3-0.5-0.6v-5
				C42.2,119.2,42.4,118.9,42.7,118.9L42.7,118.9z"/>
			<path class="st16" d="M50.2,118.9h4.6c0.3,0,0.5,0.3,0.5,0.6v5c0,0.4-0.2,0.6-0.5,0.6h-4.6c-0.3,0-0.5-0.3-0.5-0.6v-5
				C49.7,119.2,49.9,118.9,50.2,118.9L50.2,118.9z"/>
			<path class="st16" d="M57.7,118.9h4.6c0.3,0,0.5,0.3,0.5,0.6v5c0,0.4-0.2,0.6-0.5,0.6h-4.6c-0.3,0-0.5-0.3-0.5-0.6v-5
				C57.2,119.2,57.4,118.9,57.7,118.9L57.7,118.9z"/>
			<path class="st16" d="M65.2,118.9h4.6c0.3,0,0.5,0.3,0.5,0.6v5c0,0.4-0.2,0.6-0.5,0.6h-4.6c-0.3,0-0.5-0.3-0.5-0.6v-5
				C64.7,119.2,64.9,118.9,65.2,118.9L65.2,118.9z"/>
			<path class="st16" d="M72.7,118.9h4.6c0.3,0,0.5,0.3,0.5,0.6v5c0,0.4-0.2,0.6-0.5,0.6h-4.6c-0.3,0-0.5-0.3-0.5-0.6v-5
				C72.2,119.2,72.4,118.9,72.7,118.9L72.7,118.9z"/>
			<path class="st16" d="M80.2,118.9h4.6c0.3,0,0.5,0.3,0.5,0.6v5c0,0.4-0.2,0.6-0.5,0.6h-4.6c-0.3,0-0.5-0.3-0.5-0.6v-5
				C79.7,119.2,80,118.9,80.2,118.9L80.2,118.9z"/>
			<path class="st16" d="M87.7,118.9h4.6c0.3,0,0.5,0.3,0.5,0.6v5c0,0.4-0.2,0.6-0.5,0.6h-4.6c-0.3,0-0.5-0.3-0.5-0.6v-5
				C87.2,119.2,87.5,118.9,87.7,118.9L87.7,118.9z"/>
			<path class="st16" d="M95.2,118.9h4.6c0.3,0,0.5,0.3,0.5,0.6v5c0,0.4-0.2,0.6-0.5,0.6h-4.6c-0.3,0-0.5-0.3-0.5-0.6v-5
				C94.8,119.2,95,118.9,95.2,118.9L95.2,118.9z"/>
			<path class="st16" d="M102.8,118.9h4.6c0.3,0,0.5,0.3,0.5,0.6v5c0,0.4-0.2,0.6-0.5,0.6h-4.6c-0.3,0-0.5-0.3-0.5-0.6v-5
				C102.3,119.2,102.5,118.9,102.8,118.9L102.8,118.9z"/>
			<path class="st16" d="M110.3,118.9h4.6c0.3,0,0.5,0.3,0.5,0.6v5c0,0.4-0.2,0.6-0.5,0.6h-4.6c-0.3,0-0.5-0.3-0.5-0.6v-5
				C109.8,119.2,110,118.9,110.3,118.9L110.3,118.9z"/>
			<path class="st16" d="M117.8,118.9h4.6c0.3,0,0.5,0.3,0.5,0.6v5c0,0.4-0.2,0.6-0.5,0.6h-4.6c-0.3,0-0.5-0.3-0.5-0.6v-5
				C117.3,119.2,117.5,118.9,117.8,118.9L117.8,118.9z"/>
			<path class="st16" d="M53.9,127.6h4.6c0.3,0,0.5,0.3,0.5,0.6v5c0,0.4-0.2,0.6-0.5,0.6h-4.6c-0.3,0-0.5-0.3-0.5-0.6v-5
				C53.4,127.9,53.7,127.6,53.9,127.6L53.9,127.6z"/>
			<path class="st16" d="M61.4,127.6h4.6c0.3,0,0.5,0.3,0.5,0.6v5c0,0.4-0.2,0.6-0.5,0.6h-4.6c-0.3,0-0.5-0.3-0.5-0.6v-5
				C61,127.9,61.2,127.6,61.4,127.6L61.4,127.6z"/>
			<path class="st16" d="M69,127.6h4.6c0.3,0,0.5,0.3,0.5,0.6v5c0,0.4-0.2,0.6-0.5,0.6H69c-0.3,0-0.5-0.3-0.5-0.6v-5
				C68.5,127.9,68.7,127.6,69,127.6L69,127.6z"/>
			<path class="st16" d="M76.5,127.6h4.6c0.3,0,0.5,0.3,0.5,0.6v5c0,0.4-0.2,0.6-0.5,0.6h-4.6c-0.3,0-0.5-0.3-0.5-0.6v-5
				C76,127.9,76.2,127.6,76.5,127.6L76.5,127.6z"/>
			<path class="st16" d="M84,127.6h4.6c0.3,0,0.5,0.3,0.5,0.6v5c0,0.4-0.2,0.6-0.5,0.6H84c-0.3,0-0.5-0.3-0.5-0.6v-5
				C83.5,127.9,83.7,127.6,84,127.6L84,127.6z"/>
			<path class="st16" d="M91.5,127.6h4.6c0.3,0,0.5,0.3,0.5,0.6v5c0,0.4-0.2,0.6-0.5,0.6h-4.6c-0.3,0-0.5-0.3-0.5-0.6v-5
				C91,127.9,91.2,127.6,91.5,127.6L91.5,127.6z"/>
			<path class="st16" d="M99,127.6h4.6c0.3,0,0.5,0.3,0.5,0.6v5c0,0.4-0.2,0.6-0.5,0.6H99c-0.3,0-0.5-0.3-0.5-0.6v-5
				C98.5,127.9,98.7,127.6,99,127.6L99,127.6z"/>
			<path class="st16" d="M106.5,127.6h4.6c0.3,0,0.5,0.3,0.5,0.6v5c0,0.4-0.2,0.6-0.5,0.6h-4.6c-0.3,0-0.5-0.3-0.5-0.6v-5
				C106,127.9,106.3,127.6,106.5,127.6L106.5,127.6z"/>
			<path class="st16" d="M114,127.6h4.6c0.3,0,0.5,0.3,0.5,0.6v5c0,0.4-0.2,0.6-0.5,0.6H114c-0.3,0-0.5-0.3-0.5-0.6v-5
				C113.5,127.9,113.8,127.6,114,127.6L114,127.6z"/>
			<path class="st16" d="M121.6,127.6h4.6c0.3,0,0.5,0.3,0.5,0.6v5c0,0.4-0.2,0.6-0.5,0.6h-4.6c-0.3,0-0.5-0.3-0.5-0.6v-5
				C121.1,127.9,121.3,127.6,121.6,127.6L121.6,127.6z"/>
			<path class="st16" d="M125.3,118.9h4.6c0.3,0,0.5,0.3,0.5,0.6v5c0,0.4-0.2,0.6-0.5,0.6h-4.6c-0.3,0-0.5-0.3-0.5-0.6v-5
				C124.8,119.2,125,118.9,125.3,118.9L125.3,118.9z"/>
			<path class="st16" d="M132.8,118.9h4.6c0.3,0,0.5,0.3,0.5,0.6v5c0,0.4-0.2,0.6-0.5,0.6h-4.6c-0.3,0-0.5-0.3-0.5-0.6v-5
				C132.3,119.2,132.5,118.9,132.8,118.9L132.8,118.9z"/>
			<path class="st16" d="M129.2,127.6h8.2c0.3,0,0.5,0.3,0.5,0.6v5c0,0.4-0.2,0.6-0.5,0.6h-8.2c-0.3,0-0.5-0.3-0.5-0.6v-5
				C128.7,127.9,128.9,127.6,129.2,127.6L129.2,127.6z"/>
			<path class="st16" d="M42.7,127.6h8.6c0.3,0,0.5,0.3,0.5,0.6v5c0,0.4-0.2,0.6-0.5,0.6h-8.6c-0.3,0-0.5-0.3-0.5-0.6v-5
				C42.2,127.9,42.5,127.6,42.7,127.6L42.7,127.6z"/>
			<path class="st16" d="M42.7,136.3H53c0.3,0,0.5,0.3,0.5,0.6v5c0,0.4-0.2,0.6-0.5,0.6H42.7c-0.3,0-0.5-0.3-0.5-0.6v-5
				C42.2,136.6,42.5,136.3,42.7,136.3L42.7,136.3z"/>
			<path class="st16" d="M42.7,145h4.6c0.3,0,0.5,0.3,0.5,0.6v5c0,0.4-0.2,0.6-0.5,0.6h-4.6c-0.3,0-0.5-0.3-0.5-0.6v-5
				C42.2,145.3,42.5,145,42.7,145L42.7,145z"/>
			<path class="st16" d="M50.2,145h4.6c0.3,0,0.5,0.3,0.5,0.6v5c0,0.4-0.2,0.6-0.5,0.6h-4.6c-0.3,0-0.5-0.3-0.5-0.6v-5
				C49.7,145.3,50,145,50.2,145L50.2,145z"/>
			<path class="st16" d="M57.7,145h4.6c0.3,0,0.5,0.3,0.5,0.6v5c0,0.4-0.2,0.6-0.5,0.6h-4.6c-0.3,0-0.5-0.3-0.5-0.6v-5
				C57.2,145.3,57.5,145,57.7,145L57.7,145z"/>
			<path class="st16" d="M65.2,145h48c0.3,0,0.5,0.3,0.5,0.6v5c0,0.4-0.2,0.6-0.5,0.6h-48c-0.3,0-0.5-0.3-0.5-0.6v-5
				C64.7,145.3,65,145,65.2,145L65.2,145z"/>
			<path class="st16" d="M55.7,136.4h4.6c0.3,0,0.5,0.3,0.5,0.6v5c0,0.4-0.2,0.6-0.5,0.6h-4.6c-0.3,0-0.5-0.3-0.5-0.6v-5
				C55.2,136.7,55.5,136.4,55.7,136.4L55.7,136.4z"/>
			<path class="st16" d="M63.2,136.4h4.6c0.3,0,0.5,0.3,0.5,0.6v5c0,0.4-0.2,0.6-0.5,0.6h-4.6c-0.3,0-0.5-0.3-0.5-0.6v-5
				C62.7,136.7,63,136.4,63.2,136.4L63.2,136.4z"/>
			<path class="st16" d="M70.8,136.4h4.6c0.3,0,0.5,0.3,0.5,0.6v5c0,0.4-0.2,0.6-0.5,0.6h-4.6c-0.3,0-0.5-0.3-0.5-0.6v-5
				C70.3,136.7,70.5,136.4,70.8,136.4L70.8,136.4z"/>
			<path class="st16" d="M78.3,136.4h4.6c0.3,0,0.5,0.3,0.5,0.6v5c0,0.4-0.2,0.6-0.5,0.6h-4.6c-0.3,0-0.5-0.3-0.5-0.6v-5
				C77.8,136.7,78,136.4,78.3,136.4L78.3,136.4z"/>
			<path class="st16" d="M85.8,136.4h4.6c0.3,0,0.5,0.3,0.5,0.6v5c0,0.4-0.2,0.6-0.5,0.6h-4.6c-0.3,0-0.5-0.3-0.5-0.6v-5
				C85.3,136.7,85.5,136.4,85.8,136.4L85.8,136.4z"/>
			<path class="st16" d="M93.3,136.4h4.6c0.3,0,0.5,0.3,0.5,0.6v5c0,0.4-0.2,0.6-0.5,0.6h-4.6c-0.3,0-0.5-0.3-0.5-0.6v-5
				C92.8,136.7,93,136.4,93.3,136.4L93.3,136.4z"/>
			<path class="st16" d="M100.8,136.4h4.6c0.3,0,0.5,0.3,0.5,0.6v5c0,0.4-0.2,0.6-0.5,0.6h-4.6c-0.3,0-0.5-0.3-0.5-0.6v-5
				C100.3,136.7,100.5,136.4,100.8,136.4L100.8,136.4z"/>
			<path class="st16" d="M108.3,136.4h4.6c0.3,0,0.5,0.3,0.5,0.6v5c0,0.4-0.2,0.6-0.5,0.6h-4.6c-0.3,0-0.5-0.3-0.5-0.6v-5
				C107.8,136.7,108,136.4,108.3,136.4L108.3,136.4z"/>
			<path class="st16" d="M115.8,136.4h8.6c0.3,0,0.5,0.3,0.5,0.6v5c0,0.4-0.2,0.6-0.5,0.6h-8.6c-0.3,0-0.5-0.3-0.5-0.6v-5
				C115.3,136.7,115.6,136.4,115.8,136.4L115.8,136.4z"/>
			<path class="st16" d="M127.2,136.3h10.2c0.3,0,0.5,0.3,0.5,0.6v5c0,0.4-0.2,0.6-0.5,0.6h-10.2c-0.3,0-0.5-0.3-0.5-0.6v-5
				C126.7,136.6,126.9,136.3,127.2,136.3L127.2,136.3z"/>
			<path class="st16" d="M128.1,145h3.9c0.1,0,0.2,0.1,0.2,0.2v1.7c0,0.1-0.1,0.2-0.2,0.2h-3.9c-0.1,0-0.2-0.1-0.2-0.2v-1.7
				C127.9,145.1,128,145,128.1,145L128.1,145z"/>
			<path class="st16" d="M128.1,148.8h3.9c0.1,0,0.2,0.1,0.2,0.2v1.7c0,0.1-0.1,0.2-0.2,0.2h-3.9c-0.1,0-0.2-0.1-0.2-0.2V149
				C127.9,148.9,128,148.8,128.1,148.8L128.1,148.8z"/>
			<path class="st16" d="M122.4,148.8h3.9c0.1,0,0.2,0.1,0.2,0.2v1.7c0,0.1-0.1,0.2-0.2,0.2h-3.9c-0.1,0-0.2-0.1-0.2-0.2V149
				C122.2,148.9,122.3,148.8,122.4,148.8L122.4,148.8z"/>
			<path class="st16" d="M133.8,148.8h3.9c0.1,0,0.2,0.1,0.2,0.2v1.7c0,0.1-0.1,0.2-0.2,0.2h-3.9c-0.1,0-0.2-0.1-0.2-0.2V149
				C133.6,148.9,133.7,148.8,133.8,148.8L133.8,148.8z"/>
			<path class="st16" d="M115.7,145h4.6c0.3,0,0.5,0.3,0.5,0.6v5c0,0.4-0.2,0.6-0.5,0.6h-4.6c-0.3,0-0.5-0.3-0.5-0.6v-5
				C115.2,145.3,115.4,145,115.7,145L115.7,145z"/>
		</g>
	</g>
	<g id="Brush">
		<g>
			<path class="st17" d="M101.2,67.9C93.6,66,91.4,69.4,97,73c4.8,3.1-2.2,3.7-2.2,3.7c-5.9-0.1-10.3,5.2-7.4,10.7
				c1.7,3.2,6.7,6.1,13,4.7C112,89.7,116.6,71.8,101.2,67.9z M96.4,82.8c-1.3-0.7-2-1.9-1.6-2.6c0.4-0.7,1.8-0.7,3.1,0
				c1.3,0.7,2,1.9,1.6,2.6C99.1,83.5,97.7,83.5,96.4,82.8z"/>
			
				<ellipse transform="matrix(0.9806 -0.1963 0.1963 0.9806 -15.3123 21.0188)" class="st18" cx="98.4" cy="87.8" rx="1.1" ry="1.9"/>
			
				<ellipse transform="matrix(0.2754 -0.9613 0.9613 0.2754 -1.6595 161.7625)" class="st19" cx="106.5" cy="82" rx="1.1" ry="1.9"/>
			
				<ellipse transform="matrix(0.9428 -0.3333 0.3333 0.9428 -19.7877 39.5252)" class="st20" cx="105.3" cy="77.4" rx="1.1" ry="1.9"/>
			
				<ellipse transform="matrix(0.4476 -0.8942 0.8942 0.4476 -8.0377 129.9985)" class="st21" cx="101.2" cy="71.5" rx="1.9" ry="1.1"/>
		</g>
		<g>
			<path class="st22" d="M109.6,70.2c0,0,3.6,4.4-1.2,8c-4.8,3.6-5.7,4.9-5.7,4.9s-3.6-11.2,5.3-14l0.8-0.1L109.6,70.2z"/>
			<path class="st23" d="M102.6,82.6c0.7-2.9,2.5-8.9,6.3-13.4l-0.1-0.2l-0.8,0.1C100.3,71.5,102,80.3,102.6,82.6z"/>
			<path class="st24" d="M151.2,7.9c-8,8.8-28.7,31.6-37.2,43c-10.6,14.4-6,18.5-6,18.5l0.5,0.3l1,0.7c0,0,5.7,2.5,15.4-12.5
				c7.7-11.9,21.5-39.1,26.8-49.7l1.1-2.3L151.2,7.9z"/>
			<path class="st23" d="M114,50.9c-10.6,14.4-6,18.5-6,18.5l0.2,0.1L152.9,6l-1.7,1.9C143.1,16.6,122.4,39.5,114,50.9z"/>
		</g>
	</g>
	<g id="Pen">
		<path class="st25" d="M46.5,86.8l-1-0.7l-5.4,7.2c0.4,2-1.2,2-1.4,2l-0.3-0.2l0,0L38.2,95c-0.1-0.2-0.4-1.8,1.6-1.9l5.5-7.1
			l-0.9-0.8c0,0-4.6,3.7-8.4,2.4c0,0-2.4,7.7-4.4,8.5l0,0c-0.2-0.1-0.5,0-0.7,0.3c-0.2,0.3-0.2,0.6-0.1,0.8l0.2,0.2L6.3,130.3
			c-0.8-0.3-1.7-0.1-2.2,0.6l-0.2,0.3c-0.6,0.8-0.4,1.9,0.4,2.5l3.3,2.4l0,0l3,2.2c0.8,0.6,1.9,0.4,2.5-0.4l0.2-0.3
			c0.4-0.6,0.5-1.3,0.1-1.9l25-33l0.3,0.2c0.2,0.1,0.5,0,0.7-0.2c0.2-0.3,0.2-0.6,0.1-0.8l0,0l0.1,0c0.2-2.2,7-6.5,7-6.5
			C44.2,92.2,46.5,86.8,46.5,86.8z"/>
		<g>
			<g>
				<g>
					<path class="st12" d="M45.4,95.6c-2.2-3.3,0.1-8.7,0.1-8.7l-1-0.7l-5.4,7.2c0.4,2-1.2,2-1.4,2L37.2,95
						c-0.1-0.2-0.4-1.8,1.6-1.9l5.5-7.1l-0.9-0.8c0,0-4.6,3.7-8.4,2.4c0,0-2.4,7.7-4.4,8.5l3.2,2.5l0,0l1.1,0.8l0,0l3.4,2.6
						C38.6,99.9,45.4,95.6,45.4,95.6z"/>
					<path class="st26" d="M37.6,102.4L30.5,97L5.2,130.3c-0.8-0.3-1.7-0.1-2.2,0.6l-0.2,0.3c-0.6,0.8-0.4,1.9,0.4,2.5l6.2,4.7
						c0.8,0.6,1.9,0.4,2.5-0.4l0.2-0.3c0.4-0.6,0.5-1.3,0.1-1.9L37.6,102.4z"/>
					<path class="st27" d="M38.3,102.8c-0.2,0.3-0.5,0.4-0.7,0.2l-7.6-5.8c-0.2-0.1-0.2-0.5,0.1-0.8l0,0c0.2-0.3,0.5-0.4,0.7-0.3
						l7.6,5.8C38.5,102.2,38.5,102.5,38.3,102.8L38.3,102.8z"/>
				</g>
				<path class="st28" d="M45.5,86.8l-1-0.7l-5.4,7.2c0.4,2-1.2,2-1.4,2l-0.3-0.2l-31,40.9l3,2.2c0.8,0.6,1.9,0.4,2.5-0.4l0.2-0.3
					c0.4-0.6,0.5-1.3,0.1-1.9l25-33l0.3,0.2c0.2,0.1,0.5,0,0.7-0.2c0.2-0.3,0.2-0.6,0-0.8l0,0l0.1,0.1c0.2-2.2,7-6.5,7-6.5
					C43.1,92.2,45.5,86.8,45.5,86.8z"/>
			</g>
			<path class="st29" d="M8.6,129.4c-0.2,0.3-0.7,0.4-1,0.2l0,0c-0.3-0.2-0.4-0.7-0.1-1l21.7-28.6c0.2-0.3,0.7-0.4,1-0.2l0,0
				c0.3,0.2,0.4,0.7,0.1,1L8.6,129.4z"/>
		</g>
	</g>
</g>
</svg>
