<?xml version="1.0" encoding="utf-8"?>
<!-- Generator: Adobe Illustrator 21.1.0, SVG Export Plug-In . SVG Version: 6.00 Build 0)  -->
<svg version="1.1" id="Layer_1" xmlns="http://www.w3.org/2000/svg" xmlns:xlink="http://www.w3.org/1999/xlink" x="0px" y="0px"
	 viewBox="0 0 160 160" style="enable-background:new 0 0 160 160;" xml:space="preserve">
<style type="text/css">
	.st0{opacity:0.35;}
	.st1{fill:#008DBD;}
	.st2{fill:#F1F1F1;}
	.st3{fill:#E5E5E5;}
	.st4{fill:#C0272D;}
</style>
<g>
	<g class="st0">
		<path d="M101.6,24v32.2H59.1V24H101.6 M105.4,17.3H55.2c-1.6,0-2.9,1.3-2.9,2.9v39.8c0,1.6,1.3,2.9,2.9,2.9h50.1
			c1.6,0,2.9-1.3,2.9-2.9V20.2C108.2,18.6,107,17.3,105.4,17.3L105.4,17.3z"/>
		<path d="M101.6,24v32.2H59.1V24H101.6 M105.4,17.3H55.2c-1.6,0-2.9,1.3-2.9,2.9v39.8c0,1.6,1.3,2.9,2.9,2.9h50.1
			c1.6,0,2.9-1.3,2.9-2.9V20.2C108.2,18.6,107,17.3,105.4,17.3L105.4,17.3z"/>
		<path d="M151.1,34.6h-8.9v-2.2c0-1.6-1.3-2.9-2.9-2.9h-12.6c-1.6,0-2.9,1.3-2.9,2.9v2.2H38.2v-2.2c0-1.6-1.3-2.9-2.9-2.9H22.7
			c-1.6,0-2.9,1.3-2.9,2.9v2.2H11c-1.6,0-2.9,1.3-2.9,2.9v95.4c0,1.6,1.3,2.9,2.9,2.9h8.9v2.2c0,1.6,1.3,2.9,2.9,2.9h12.6
			c1.6,0,2.9-1.3,2.9-2.9v-2.2h85.7v2.2c0,1.6,1.3,2.9,2.9,2.9h12.6c1.6,0,2.9-1.3,2.9-2.9v-2.2h8.9c1.6,0,2.9-1.3,2.9-2.9V37.5
			C154,35.9,152.7,34.6,151.1,34.6z"/>
		<path d="M151.1,34.6h-8.9v-2.2c0-1.6-1.3-2.9-2.9-2.9h-12.6c-1.6,0-2.9,1.3-2.9,2.9v2.2H82.2v101.1h41.7v2.2
			c0,1.6,1.3,2.9,2.9,2.9h12.6c1.6,0,2.9-1.3,2.9-2.9v-2.2h8.9c1.6,0,2.9-1.3,2.9-2.9V37.5C154,35.9,152.7,34.6,151.1,34.6z"/>
		<circle cx="82.2" cy="85.2" r="37.6"/>
		<path d="M119.8,85.2c0,20.7-16.8,37.6-37.6,37.6V47.6C103,47.6,119.8,64.5,119.8,85.2z"/>
		<polygon points="112.1,77.3 90.2,77.3 90.2,55.3 74.3,55.3 74.3,77.3 52.4,77.3 52.4,93.1 74.3,93.1 74.3,115.1 90.2,115.1 
			90.2,93.1 112.1,93.1 		"/>
		<polygon points="90.2,77.3 90.2,55.3 82.2,55.3 82.2,115.1 90.2,115.1 90.2,93.1 112.1,93.1 112.1,77.3 		"/>
	</g>
	<g>
		<g>
			<path class="st1" d="M99.6,24v32.2H57.1V24H99.6 M103.4,17.3H53.2c-1.6,0-2.9,1.3-2.9,2.9v39.8c0,1.6,1.3,2.9,2.9,2.9h50.1
				c1.6,0,2.9-1.3,2.9-2.9V20.2C106.2,18.6,105,17.3,103.4,17.3L103.4,17.3z"/>
			<path class="st1" d="M99.6,24v32.2H57.1V24H99.6 M103.4,17.3H53.2c-1.6,0-2.9,1.3-2.9,2.9v39.8c0,1.6,1.3,2.9,2.9,2.9h50.1
				c1.6,0,2.9-1.3,2.9-2.9V20.2C106.2,18.6,105,17.3,103.4,17.3L103.4,17.3z"/>
			<path class="st1" d="M149.1,34.6h-8.9v-2.2c0-1.6-1.3-2.9-2.9-2.9h-12.6c-1.6,0-2.9,1.3-2.9,2.9v2.2H36.2v-2.2
				c0-1.6-1.3-2.9-2.9-2.9H20.7c-1.6,0-2.9,1.3-2.9,2.9v2.2H9c-1.6,0-2.9,1.3-2.9,2.9v95.4c0,1.6,1.3,2.9,2.9,2.9h8.9v2.2
				c0,1.6,1.3,2.9,2.9,2.9h12.6c1.6,0,2.9-1.3,2.9-2.9v-2.2h85.7v2.2c0,1.6,1.3,2.9,2.9,2.9h12.6c1.6,0,2.9-1.3,2.9-2.9v-2.2h8.9
				c1.6,0,2.9-1.3,2.9-2.9V37.5C152,35.9,150.7,34.6,149.1,34.6z"/>
			<path class="st1" d="M149.1,34.6h-8.9v-2.2c0-1.6-1.3-2.9-2.9-2.9h-12.6c-1.6,0-2.9,1.3-2.9,2.9v2.2H80.2v101.1h41.7v2.2
				c0,1.6,1.3,2.9,2.9,2.9h12.6c1.6,0,2.9-1.3,2.9-2.9v-2.2h8.9c1.6,0,2.9-1.3,2.9-2.9V37.5C152,35.9,150.7,34.6,149.1,34.6z"/>
			<circle class="st2" cx="80.2" cy="85.2" r="37.6"/>
			<path class="st3" d="M117.8,85.2c0,20.7-16.8,37.6-37.6,37.6V47.6C101,47.6,117.8,64.5,117.8,85.2z"/>
			<polygon class="st4" points="110.1,77.3 88.2,77.3 88.2,55.3 72.3,55.3 72.3,77.3 50.4,77.3 50.4,93.1 72.3,93.1 72.3,115.1 
				88.2,115.1 88.2,93.1 110.1,93.1 			"/>
			<polygon class="st4" points="88.2,77.3 88.2,55.3 80.2,55.3 80.2,115.1 88.2,115.1 88.2,93.1 110.1,93.1 110.1,77.3 			"/>
		</g>
	</g>
</g>
</svg>
