<?xml version="1.0" encoding="utf-8"?>
<!-- Generator: Adobe Illustrator 21.1.0, SVG Export Plug-In . SVG Version: 6.00 Build 0)  -->
<svg version="1.1" id="Layer_1" xmlns="http://www.w3.org/2000/svg" xmlns:xlink="http://www.w3.org/1999/xlink" x="0px" y="0px"
	 viewBox="0 0 160 160" style="enable-background:new 0 0 160 160;" xml:space="preserve">
<style type="text/css">
	.st0{fill:#074F8A;}
	.st1{fill:#008CBB;}
	.st2{fill:#CBC5B8;}
	.st3{fill:#9E9E9F;}
	.st4{fill:#379786;}
	.st5{fill:#53BFA9;}
	.st6{fill:#369A84;}
	.st7{fill:#E0E0E0;}
	.st8{fill:#F3F2F2;}
	.st9{fill:#FFFFFF;}
	.st10{fill:#F7A91F;}
	.st11{fill:#BD3828;}
	.st12{fill:#DFD8C5;}
	.st13{fill:none;stroke:#FFFFFF;stroke-width:2;stroke-miterlimit:10;}
	.st14{fill:none;stroke:#F7A91F;stroke-width:1.3433;stroke-miterlimit:10;}
	.st15{fill:#C94B3C;}
	.st16{fill:none;stroke:#4A99A7;stroke-miterlimit:10;}
</style>
<path class="st0" d="M154.8,14.4h-3.7c1.8,0,3.2,1.7,3.2,3.7v84.4h3.7V18C158,16,156.5,14.4,154.8,14.4z"/>
<path class="st1" d="M151.1,14.4H5.3C3.5,14.4,2,16,2,18v84.4h152.3V18C154.3,16,152.9,14.4,151.1,14.4z"/>
<path class="st2" d="M97.7,128.6v-22.7H63.4v22.7c-0.6,3.9-4.8,14.8-4.8,14.8h44.6C103.2,143.5,98.4,132.5,97.7,128.6z"/>
<rect x="63.4" y="109.6" class="st3" width="34.3" height="13.3"/>
<path class="st0" d="M2,102.5v11.8c0,2,1.5,3.7,3.3,3.7h149.5c1.8,0,3.2-1.7,3.2-3.7v-11.8H2z"/>
<path class="st1" d="M154.3,102.5v11.8c0,2-1.9,3.7-3.7,3.7h4.1c1.9,0,3.3-1.7,3.3-3.7v-11.8H154.3z"/>
<path class="st4" d="M80,107.1c-0.2,0-0.4,0-0.5,0c1.6,0.3,2.8,1.6,2.8,3.3c0,1.7-1.2,3-2.8,3.3c0.2,0,0.3,0,0.5,0
	c1.8,0,3.3-1.5,3.3-3.3C83.3,108.6,81.8,107.1,80,107.1z"/>
<path class="st5" d="M82.3,110.5c0-1.7-1.2-3-2.8-3.3c-1.6,0.3-2.8,1.6-2.8,3.3c0,1.7,1.2,3,2.8,3.3
	C81.1,113.5,82.3,112.1,82.3,110.5z"/>
<path class="st6" d="M21.9,113.8h-2.7c0.6,0,1.1,0.3,1.1,0.6l0,0.5c0,0.3-0.6,0.6-1.2,0.6h2.7c0.6,0,1.2-0.3,1.2-0.6l0-0.5
	C23,114,22.5,113.8,21.9,113.8z"/>
<path class="st5" d="M20.2,114.9l0-0.5c0-0.3-0.5-0.6-1.1-0.6H7.8c-0.6,0-1.2,0.3-1.2,0.6l0,0.5c0,0.3,0.5,0.6,1.1,0.6H19
	C19.7,115.4,20.2,115.2,20.2,114.9z"/>
<rect x="5.7" y="21.7" class="st7" width="148.6" height="80.8"/>
<polygon class="st8" points="5.7,21.7 5.7,102.5 154.3,21.7 "/>
<path class="st9" d="M68.8,53.9L41.1,64.2h29.5C70.6,60.5,70,57.1,68.8,53.9z"/>
<path class="st0" d="M41.1,34.7v29.5l21.1-20.6C56.8,38.1,49.4,34.7,41.1,34.7z"/>
<path class="st10" d="M62.2,43.5L41.1,64.2l27.7-10.3C67.3,50,65.1,46.5,62.2,43.5z"/>
<path class="st11" d="M41.1,64.2v29.5c16.3,0,29.5-13.2,29.5-29.5H41.1z"/>
<path class="st12" d="M41.1,93.7V64.2L27.3,90.3C31.4,92.5,36.1,93.7,41.1,93.7z"/>
<path class="st1" d="M11.6,64.2c0,11.3,6.4,21.2,15.7,26.1l13.8-26.1V34.7C24.8,34.7,11.6,47.9,11.6,64.2z"/>
<g>
	<line class="st13" x1="20" y1="67.1" x2="34.6" y2="45.2"/>
	<path class="st13" d="M26.2,51.1c0,0.9-0.7,1.6-1.6,1.6h-1.6c-0.9,0-1.6-0.7-1.6-1.6v-5.9c0-0.9,0.7-1.6,1.6-1.6h1.6
		c0.9,0,1.6,0.7,1.6,1.6V51.1z"/>
	<path class="st13" d="M33.9,65.9c0,0.9-0.7,1.6-1.6,1.6h-1.6c-0.9,0-1.6-0.7-1.6-1.6V60c0-0.9,0.7-1.6,1.6-1.6h1.6
		c0.9,0,1.6,0.7,1.6,1.6V65.9z"/>
</g>
<g>
	<line class="st13" x1="83.3" y1="49.6" x2="92.6" y2="35.7"/>
	<path class="st13" d="M87.2,39.5c0,0.6-0.5,1-1,1h-1c-0.6,0-1-0.5-1-1v-3.8c0-0.6,0.5-1,1-1h1c0.6,0,1,0.5,1,1V39.5z"/>
	<path class="st13" d="M92.1,48.8c0,0.6-0.5,1-1,1h-1c-0.6,0-1-0.5-1-1v-3.8c0-0.6,0.5-1,1-1h1c0.6,0,1,0.5,1,1V48.8z"/>
</g>
<g>
	<line class="st13" x1="127.8" y1="89.3" x2="134.5" y2="79.1"/>
	<path class="st13" d="M130.6,81.9c0,0.4-0.3,0.8-0.8,0.8h-0.7c-0.4,0-0.8-0.3-0.8-0.8v-2.7c0-0.4,0.3-0.8,0.8-0.8h0.7
		c0.4,0,0.8,0.3,0.8,0.8V81.9z"/>
	<path class="st13" d="M134.2,88.8c0,0.4-0.3,0.8-0.8,0.8h-0.7c-0.4,0-0.8-0.3-0.8-0.8V86c0-0.4,0.3-0.8,0.8-0.8h0.7
		c0.4,0,0.8,0.3,0.8,0.8V88.8z"/>
</g>
<g>
	<g>
		<polyline class="st14" points="69.9,98 73.7,76.2 79.2,75.3 86.5,65.7 92,77.9 101.3,58.9 105.7,65.7 118.7,46.9 120.3,52.8 
			126.8,54.8 131.4,49.6 142.8,44.5 		"/>
	</g>
</g>
<circle class="st15" cx="87.2" cy="66" r="2.8"/>
<circle class="st15" cx="118.6" cy="47.1" r="3"/>
<circle class="st15" cx="106.4" cy="65.6" r="3"/>
<g>
	<polyline class="st16" points="70.6,97.4 78.2,75.7 89.4,74.7 95.6,57.5 110.4,50.8 113.2,65.1 123.7,52.2 127.8,52.2 134.3,41.3 
		138.9,36.1 150.3,31 	"/>
</g>
<rect x="68.7" y="93.6" class="st10" width="79.7" height="5.3"/>
<polygon class="st6" points="108.3,141.6 54.5,141.6 54.5,141.7 105.1,141.7 105.1,144.1 108.3,144.1 "/>
<rect x="55.6" y="142.3" class="st0" width="50.6" height="2.4"/>
</svg>
